<?xml version="1.0" standalone="no"?>
<!DOCTYPE svg PUBLIC "-//W3C//DTD SVG 20010904//EN"
 "http://www.w3.org/TR/2001/REC-SVG-20010904/DTD/svg10.dtd">
<svg version="1.0" xmlns="http://www.w3.org/2000/svg"
 width="365.000000pt" height="365.000000pt" viewBox="0 0 365.000000 365.000000"
 preserveAspectRatio="xMidYMid meet">
<metadata>
Created by potrace 1.14, written by Peter Selinger 2001-2017
</metadata>
<g transform="translate(0.000000,365.000000) scale(0.100000,-0.100000)"
fill="#000000" stroke="none">
<path d="M2895 3342 c-149 -50 -313 -161 -404 -272 -33 -40 -51 -55 -70 -55
-14 -1 -32 -4 -39 -8 -22 -14 -41 -64 -48 -124 -3 -32 -17 -87 -31 -122 -34
-88 -69 -250 -84 -386 l-12 -115 -36 -10 c-19 -5 -38 -6 -42 -2 -4 4 -19 51
-34 106 -33 122 -69 224 -106 297 -22 44 -28 68 -26 112 2 44 -2 60 -19 79
-12 12 -26 42 -32 66 -31 128 -208 319 -377 408 -99 51 -147 44 -131 -20 5
-21 39 -58 135 -145 18 -17 31 -31 29 -31 -2 0 -39 12 -83 26 -149 48 -237 41
-222 -17 8 -31 87 -79 189 -114 43 -15 78 -31 78 -35 0 -4 -39 -10 -87 -14
-139 -10 -193 -29 -193 -67 0 -62 287 -169 453 -169 54 0 64 -3 92 -30 17 -16
48 -36 70 -43 37 -13 43 -20 73 -89 17 -42 45 -127 61 -189 47 -183 47 -164
-3 -193 -25 -14 -46 -26 -49 -26 -2 0 -32 37 -65 83 -70 93 -132 150 -230 209
-37 23 -78 49 -91 59 -28 22 -84 25 -100 5 -8 -9 -45 -15 -114 -19 -73 -3
-123 -12 -174 -30 -153 -54 -308 -156 -348 -230 l-20 -37 22 -21 c30 -31 84
-28 171 9 39 17 72 28 72 25 0 -4 -23 -38 -51 -77 -102 -138 -124 -207 -73
-226 36 -14 65 -4 149 50 l73 48 -30 -64 c-30 -65 -32 -92 -6 -126 41 -54 137
2 233 136 24 34 64 103 89 154 39 81 52 122 72 227 2 12 19 28 40 38 l36 17
48 -35 c61 -45 108 -97 166 -184 l47 -70 -71 -76 c-120 -129 -193 -297 -212
-495 -6 -65 -14 -98 -24 -106 -17 -12 -110 -20 -331 -29 l-140 -6 -245 218
c-134 120 -255 233 -267 252 -21 32 -23 44 -23 187 0 179 -1 182 -97 211 -150
45 -473 2 -437 -59 8 -13 534 -579 1321 -1420 245 -262 243 -259 243 -389 0
-45 5 -80 12 -87 9 -9 166 -12 644 -12 562 0 634 2 648 16 13 12 16 41 16 145
0 71 3 129 6 129 4 0 24 -16 45 -35 45 -41 88 -46 119 -15 57 57 51 187 -9
220 -28 15 -67 12 -85 -5 -23 -24 -37 -18 -30 13 12 56 29 100 82 222 137 313
158 465 97 707 -59 233 -231 442 -430 523 -30 12 -55 27 -55 33 0 12 40 83 84
149 28 43 35 48 68 48 33 0 37 -3 48 -37 20 -63 89 -193 143 -271 104 -151
226 -249 277 -222 60 32 53 112 -24 283 l-27 59 61 -49 c160 -128 217 -155
240 -113 20 38 -30 160 -128 308 -19 29 -32 55 -29 58 3 3 21 -1 39 -11 105
-53 195 -69 233 -42 68 50 -112 165 -359 230 -61 15 -113 21 -206 21 -69 1
-136 0 -150 -2 -14 -1 -40 0 -58 4 -46 9 -76 -15 -101 -82 -12 -31 -39 -77
-60 -102 -22 -26 -64 -83 -94 -127 -44 -66 -58 -80 -78 -78 -13 1 -68 5 -121
9 l-98 7 0 41 c0 49 24 233 39 298 6 26 20 72 32 102 16 44 25 56 42 56 11 0
40 9 64 21 40 19 48 20 96 8 138 -34 487 2 545 56 11 10 11 14 0 23 -16 12
-166 52 -200 52 -13 0 -33 6 -43 14 -22 16 -30 12 108 46 114 28 150 44 176
75 25 33 18 51 -26 66 -40 13 -104 7 -237 -22 -83 -18 -124 -19 -80 -2 33 12
182 122 203 150 44 55 35 103 -18 103 -14 0 -62 -13 -106 -28z m-437 -1188
c16 -5 21 -11 16 -23 -49 -119 -94 -255 -129 -393 -37 -148 -43 -164 -49 -131
-8 50 -8 413 0 492 l7 61 66 0 c36 0 76 -3 89 -6z m-262 -101 c-3 -42 -6 -92
-7 -112 -1 -20 -9 11 -19 69 -18 107 -16 119 19 120 11 0 13 -15 7 -77z m447
48 c89 -38 200 -124 261 -201 57 -72 101 -161 127 -257 40 -144 23 -356 -40
-511 -11 -26 -32 -80 -47 -120 -15 -40 -31 -75 -36 -78 -4 -3 -8 121 -8 275 0
241 -2 282 -16 295 -13 14 -47 16 -214 16 l-199 0 112 113 c120 120 183 203
193 255 6 30 4 32 -20 32 -63 0 -203 -103 -277 -204 -16 -21 -29 -35 -29 -30
1 57 123 434 141 434 4 0 28 -9 52 -19z m-579 -58 c3 -10 8 -45 11 -78 3 -33
8 -71 11 -85 10 -45 -12 -8 -44 75 -22 57 -27 84 -20 92 15 18 36 16 42 -4z
m-111 -188 c28 -93 52 -213 43 -222 -3 -3 -24 11 -47 32 -48 43 -127 81 -140
68 -13 -13 38 -88 105 -155 l57 -58 -124 0 -124 0 9 62 c11 85 26 134 55 193
48 94 119 184 133 168 5 -4 19 -44 33 -88z m42 -950 l0 -530 -35 0 -35 0 -3
524 c-2 562 -4 544 48 539 l25 -3 0 -530z m-198 -2 c-2 -462 -4 -528 -17 -528
-13 0 -15 65 -18 515 -1 283 0 521 3 528 2 6 11 12 19 12 14 0 15 -62 13 -527z
m376 152 c-2 -203 -3 -441 -3 -528 l0 -158 -42 3 -43 3 -3 515 c-1 283 0 521
3 528 3 9 19 12 47 10 l43 -3 -2 -370z m567 -155 l0 -530 -260 0 -260 0 0 530
0 530 260 0 260 0 0 -530z m-1283 394 c39 -3 79 -11 88 -18 10 -7 21 -34 26
-62 8 -54 0 -234 -11 -234 -10 0 -354 308 -359 321 -3 10 46 9 256 -7z"/>
</g>
</svg>
